<svg preserveAspectRatio="none" viewBox="-2.4 -2.4 28.80 28.80" fill="none" xmlns="http://www.w3.org/2000/svg"><g id="SVGRepo_bgCarrier" stroke-width="0"><path transform="translate(-2.4, -2.4), scale(0.8999999999999999)" d="M16,29.511121890197195C19.546176984138032,29.831924318975553,22.810476729055885,27.841687971517096,25.430346721013883,25.430346721013883C28.182142765278414,22.897580081877155,30.385942200157455,19.728416292619197,30.679541019101936,16C30.99580556006444,11.983751325902606,29.9315882315897,7.765247682615902,27.04250729766573,4.957492702334271C24.183885711793522,2.1793396571124233,19.92033665219255,1.012006324078976,16,1.7336795516312122C12.554473263811484,2.3679476313717673,10.844526081936035,5.890167228862834,8.390954538143067,8.390954538143063C5.9799232717195405,10.84838293822503,2.060117447649575,12.557796134053913,2.003032822161913,15.999999999999998C1.9457292877646781,19.455404076832675,5.647877957684848,21.465532920006865,8.134325758088705,23.865674241911293C10.548196033798444,26.195757259743704,12.658639929303398,29.20884808071246,16,29.511121890197195" fill="#1c1c1c" strokewidth="0"></path></g><g id="SVGRepo_tracerCarrier" stroke-linecap="round" stroke-linejoin="round"></g><g id="SVGRepo_iconCarrier"> <path d="M3 13.6493C3 16.6044 5.41766 19 8.4 19L16.5 19C18.9853 19 21 16.9839 21 14.4969C21 12.6503 19.8893 10.9449 18.3 10.25C18.1317 7.32251 15.684 5 12.6893 5C10.3514 5 8.34694 6.48637 7.5 8.5C4.8 8.9375 3 11.2001 3 13.6493Z" stroke="DEFB82" stroke-width="2" stroke-linecap="round" stroke-linejoin="round"></path> </g></svg>