<svg preserveAspectRatio="none" viewBox="-2.4 -2.4 28.80 28.80" fill="none" xmlns="http://www.w3.org/2000/svg"><g id="SVGRepo_bgCarrier" stroke-width="0"><path transform="translate(-2.4, -2.4), scale(0.8999999999999999)" d="M16,30.204229578375816C19.141529893131953,29.99441523675895,21.174601912166743,27.057984869134067,23.474037408080974,24.90721093226402C25.609879321466003,22.909454035518905,28.057749207315904,21.08760678407651,28.77731463040359,18.252985310341163C29.533695781598613,15.273333725213792,28.67202408448201,12.215987831596697,27.40691715697207,9.414213308798418C25.997411813607208,6.29264621046578,24.548723574060485,2.496161874569051,21.24862117825934,1.5795318294611569C17.981272334291415,0.6719993474266162,15.262404288335283,4.061246219472167,12.050502717574675,5.148845398339022C8.708365517902518,6.280544360447324,4.4127554187183655,5.2847695595978434,2.196856975028231,8.030751658869633C-0.09739889850095773,10.873835726101952,0.1254590386093537,15.116139009026694,1.186215506102677,18.612069892674786C2.162438614026671,21.82940451839451,4.990680316481463,23.892820386009387,7.6385210957736085,25.964822523512492C10.176037297965838,27.950492899167266,12.785070430323351,30.418946087195607,16,30.204229578375816" fill="#366ceb" strokewidth="0"></path></g><g id="SVGRepo_tracerCarrier" stroke-linecap="round" stroke-linejoin="round"></g><g id="SVGRepo_iconCarrier"> <path d="M3 13.6493C3 16.6044 5.41766 19 8.4 19L16.5 19C18.9853 19 21 16.9839 21 14.4969C21 12.6503 19.8893 10.9449 18.3 10.25C18.1317 7.32251 15.684 5 12.6893 5C10.3514 5 8.34694 6.48637 7.5 8.5C4.8 8.9375 3 11.2001 3 13.6493Z" stroke="#366ceb" stroke-width="2" stroke-linecap="round" stroke-linejoin="round"></path> </g></svg>