<svg id="Layer_1" data-name="Layer 1" xmlns="http://www.w3.org/2000/svg" viewBox="0 0 383.38 317.18"><defs><style>.cls-1{fill:#fff;}.cls-2{fill:#366ceb;}</style></defs><path class="cls-1" d="M383.38,72.28c-.49,5.3-1,10.6-1.48,15.9-4.06,46.59-17.32,90.11-44.17,128.79-7.14,10.28-16.05,19.33-24.26,28.84-2.48,2.87-5.84,3.91-9.72,3.91q-145.75-.08-291.52,0c-5.33,0-9.14-2.13-11.29-7C-1,238.4.05,233.66,3.78,230.09,26.37,208.4,41.39,182,52.08,152.86A253.84,253.84,0,0,0,66.86,83.38c.32-4.32.67-8.64,1-13.35H383.38Z"/><path class="cls-1" d="M383.38,308.82c-2.73,6.25-7.47,8.34-14.26,8.33q-143.69-.22-287.35,0c-8.08,0-14.08-4.81-13.65-13.76.5-10.2.12-20.44.12-31.28H73q114.48,0,229,.05a38.59,38.59,0,0,0,28.23-11.42c22.34-21.7,38.52-47.47,50.94-75.81.63-1.43,1.48-2.76,2.22-4.14Z"/><path class="cls-2" d="M383.38,52.13H68.24v-6.4c0-6.37,0-12.73,0-19.1,0-5.87,4.47-9.25,12.14-9.25h55.23c0-2.83,0-5.59,0-8.34,0-5.4,4.64-9.06,11.28-9S158,3.71,158.07,9.15c0,2.59,0,5.19,0,8h56.14c0-2.74,0-5.5,0-8.27.06-5.2,4.64-8.86,11.09-8.89C232,0,236.6,3.63,236.66,9c0,2.68,0,5.37,0,8.21h56.89c0-2.66,0-5.41,0-8.16.05-5.4,4.63-9.07,11.28-9S316,3.7,316,9.14c0,2.6,0,5.2,0,8.24h4.09c16.46,0,32.93.15,49.38-.08,6.71-.1,11.31,1.66,13.9,6.45Z"/></svg>