<svg id="Layer_1" data-name="Layer 1" xmlns="http://www.w3.org/2000/svg" xmlns:xlink="http://www.w3.org/1999/xlink" viewBox="0 0 884.3 980.31"><defs><style>.cls-1{fill:url(#linear-gradient);}.cls-2{fill:url(#linear-gradient-2);}.cls-3{fill:url(#linear-gradient-3);}.cls-4{fill:url(#linear-gradient-4);}.cls-5{fill:url(#linear-gradient-5);}.cls-6{fill:url(#linear-gradient-6);}.cls-7{fill:url(#radial-gradient);}.cls-8{fill:url(#radial-gradient-2);}.cls-9{fill:url(#linear-gradient-7);}.cls-10{fill:url(#linear-gradient-8);}.cls-11{fill:url(#radial-gradient-3);}.cls-12{fill:url(#radial-gradient-4);}.cls-13{fill:url(#radial-gradient-5);}.cls-14{fill:url(#linear-gradient-9);}.cls-15{fill:url(#linear-gradient-10);}.cls-16{fill:#b7b7b3;}.cls-17{fill:#a3a2a2;}.cls-18{fill:#9b9a81;}.cls-19{fill:url(#linear-gradient-11);}.cls-20{fill:url(#linear-gradient-12);}.cls-21{fill:url(#linear-gradient-13);}.cls-22{fill:url(#linear-gradient-14);}.cls-23{fill:url(#linear-gradient-15);}.cls-24{fill:url(#linear-gradient-16);}.cls-25{fill:url(#linear-gradient-17);}.cls-26{fill:url(#linear-gradient-18);}.cls-27{fill:url(#linear-gradient-19);}.cls-28{fill:url(#radial-gradient-6);}.cls-29{fill:url(#linear-gradient-20);}</style><linearGradient id="linear-gradient" x1="-1.4" y1="490.29" x2="54.06" y2="490.29" gradientUnits="userSpaceOnUse"><stop offset="0.21" stop-color="#c6c6c6"/><stop offset="0.28" stop-color="#575756"/><stop offset="0.34" stop-color="#ededed"/><stop offset="0.42" stop-color="#dadada"/><stop offset="0.51" stop-color="#b2b2b2"/><stop offset="0.59" stop-color="#1d1d1b"/><stop offset="0.78" stop-color="#b2b2b2"/><stop offset="0.92" stop-color="#3c3c3b"/></linearGradient><linearGradient id="linear-gradient-2" x1="437" y1="-104.34" x2="442.75" y2="316.17" gradientUnits="userSpaceOnUse"><stop offset="0.11" stop-color="#4065ad"/><stop offset="0.43" stop-color="#f6f6f6"/><stop offset="1" stop-color="#f6f6f6"/></linearGradient><linearGradient id="linear-gradient-3" x1="-415.83" y1="224.57" x2="1243.59" y2="224.57" gradientUnits="userSpaceOnUse"><stop offset="0.09" stop-color="#575756"/><stop offset="0.36" stop-color="#c6c6c6"/><stop offset="0.46" stop-color="#ededed"/><stop offset="0.69" stop-color="#dadada"/><stop offset="0.86" stop-color="#b2b2b2"/></linearGradient><linearGradient id="linear-gradient-4" x1="-415.83" y1="224.57" x2="1243.59" y2="224.57" gradientUnits="userSpaceOnUse"><stop offset="0.19" stop-color="#dce27f"/><stop offset="0.36" stop-color="#c6c6c6"/><stop offset="0.69" stop-color="#dadada"/><stop offset="0.95" stop-color="#4065ad"/></linearGradient><linearGradient id="linear-gradient-5" x1="-419.68" y1="359.6" x2="-314.3" y2="353.51" gradientTransform="translate(393.22 96.93)" xlink:href="#linear-gradient"/><linearGradient id="linear-gradient-6" x1="-2934.12" y1="490.29" x2="-2878.65" y2="490.29" gradientTransform="matrix(-1, 0, 0, 1, -2048.42, 0)" xlink:href="#linear-gradient"/><radialGradient id="radial-gradient" cx="-2814.46" cy="686.23" r="355.15" gradientTransform="matrix(-1, 0, 0, 1, -2048.42, 0)" gradientUnits="userSpaceOnUse"><stop offset="0.1" stop-color="#fff"/><stop offset="1" stop-color="#666768"/></radialGradient><radialGradient id="radial-gradient-2" cx="-2814.46" cy="686.23" r="355.15" gradientTransform="matrix(-0.67, 0.74, 0.52, 0.47, -1483.12, 2444.99)" gradientUnits="userSpaceOnUse"><stop offset="0" stop-color="#fff" stop-opacity="0"/><stop offset="1" stop-color="#dce27f"/></radialGradient><linearGradient id="linear-gradient-7" x1="130.86" y1="708.05" x2="214.2" y2="745.25" gradientTransform="translate(523.92)" gradientUnits="userSpaceOnUse"><stop offset="0.09" stop-color="#c6c6c6" stop-opacity="0"/><stop offset="0.49" stop-color="#b7b779" stop-opacity="0.6"/><stop offset="0.83" stop-color="#c6c6c6" stop-opacity="0"/></linearGradient><linearGradient id="linear-gradient-8" x1="-3347.51" y1="528.81" x2="-3242.13" y2="522.72" gradientTransform="matrix(1, 0, 0, -1, 4149.22, 979.04)" xlink:href="#linear-gradient"/><radialGradient id="radial-gradient-3" cx="1126.2" cy="686.23" r="355.15" gradientTransform="translate(-1003.61)" xlink:href="#radial-gradient"/><radialGradient id="radial-gradient-4" cx="1126.2" cy="686.23" r="355.15" gradientTransform="translate(-279.87 -470.1) rotate(47.71) scale(1 0.7)" xlink:href="#radial-gradient-2"/><radialGradient id="radial-gradient-5" cx="1468.2" cy="624.19" r="396.74" gradientTransform="translate(-1003.61)" gradientUnits="userSpaceOnUse"><stop offset="0.43" stop-color="#ededed"/><stop offset="1" stop-color="#878787"/></radialGradient><linearGradient id="linear-gradient-9" x1="-3903.03" y1="660.4" x2="-3839.16" y2="688.91" gradientTransform="matrix(-1, 0, 0, 1, -3575.95, 0)" gradientUnits="userSpaceOnUse"><stop offset="0.09" stop-color="#c6c6c6" stop-opacity="0.6"/><stop offset="0.87" stop-color="#575756" stop-opacity="0.6"/></linearGradient><linearGradient id="linear-gradient-10" x1="-3809.81" y1="708.05" x2="-3726.47" y2="745.25" gradientTransform="matrix(-1, 0, 0, 1, -3575.95, 0)" xlink:href="#linear-gradient-7"/><linearGradient id="linear-gradient-11" x1="819.39" y1="531.72" x2="872.53" y2="531.72" gradientUnits="userSpaceOnUse"><stop offset="0.16" stop-color="#ededed"/><stop offset="0.74" stop-color="#b7b779"/><stop offset="1" stop-color="#575756"/></linearGradient><linearGradient id="linear-gradient-12" x1="680.39" y1="514.62" x2="723.03" y2="514.62" gradientTransform="translate(986.05 -335.93) rotate(62.66)" gradientUnits="userSpaceOnUse"><stop offset="0" stop-color="#f6f6f6"/><stop offset="0.68" stop-color="#f1f1ed"/><stop offset="0.88" stop-color="#b7b779"/><stop offset="1" stop-color="#878787"/></linearGradient><linearGradient id="linear-gradient-13" x1="829.48" y1="516.64" x2="833.7" y2="516.64" gradientUnits="userSpaceOnUse"><stop offset="0.16" stop-color="#f6f6f6" stop-opacity="0.6"/><stop offset="0.51" stop-color="#b7b779" stop-opacity="0.6"/><stop offset="1" stop-color="#878787" stop-opacity="0.6"/></linearGradient><linearGradient id="linear-gradient-14" x1="3540.04" y1="1303.03" x2="3544.26" y2="1303.03" gradientTransform="translate(-2928.97 766.59) rotate(-23.89)" xlink:href="#linear-gradient-13"/><linearGradient id="linear-gradient-15" x1="6712.09" y1="4868.29" x2="6716.31" y2="4868.29" gradientTransform="matrix(-0.29, -0.96, -0.96, 0.29, 7461.77, 5566.42)" xlink:href="#linear-gradient-13"/><linearGradient id="linear-gradient-16" x1="7099.94" y1="6396.48" x2="7104.15" y2="6396.48" gradientTransform="matrix(-0.06, -1, -1, 0.06, 7675.13, 7240.6)" xlink:href="#linear-gradient-13"/><linearGradient id="linear-gradient-17" x1="7101.65" y1="6400.76" x2="7105.87" y2="6400.76" gradientTransform="matrix(-0.06, -1, -1, 0.06, 7675.13, 7240.6)" xlink:href="#linear-gradient-13"/><linearGradient id="linear-gradient-18" x1="7027.02" y1="8650.48" x2="7031.23" y2="8650.48" gradientTransform="matrix(0.27, -0.96, -0.96, -0.27, 7301.51, 9626.13)" xlink:href="#linear-gradient-13"/><linearGradient id="linear-gradient-19" x1="2720.78" y1="931.75" x2="2725" y2="931.75" gradientTransform="translate(-2041.35 392.01) rotate(-16.34)" xlink:href="#linear-gradient-13"/><radialGradient id="radial-gradient-6" cx="758.64" cy="629.48" r="396.74" gradientTransform="matrix(-1, 0, 0, 1, 1177.11, 0)" xlink:href="#radial-gradient-5"/><linearGradient id="linear-gradient-20" x1="-3193.47" y1="665.69" x2="-3129.61" y2="694.2" gradientTransform="translate(3749.45)" xlink:href="#linear-gradient-9"/></defs><path class="cls-1" d="M42,512.64a15,15,0,0,1-14.17,13.12,15.06,15.06,0,0,1-15.32-13.12V454.81H42Z"/><path class="cls-2" d="M123.62,230.48c6.23-5,12.8-9.65,19.14-14.55,17-13.11,36.35-26.88,40.6-29.87,28.79-20.25,57.46-33.07,74.3-40.6,19.58-8.75,46.17-20.48,82.72-29.1,8.79-2.08,43.18-9.87,90.38-10.73,82.83-1.5,145.35,19.45,157.79,23.75,0,0,76.11,26.28,146.3,82.72,7.36,5.92,15,11.5,22.21,17.62,11.94,10.15,15,13.93,16.85,13,5-2.46-4-36.53-15.32-60.51-27-57.13-80-84.74-121.78-106.47A434,434,0,0,0,472.89,28.27c-77-6.27-134.61,10.1-147.06,13.79-60.65,18-100.62,46.32-120.26,60.51-28.16,20.35-58.7,42.94-79.66,83.49-12.13,23.47-21,52.93-16.85,55.15C110.54,242,113.06,239,123.62,230.48Z"/><path class="cls-3" d="M56.12,449.14c1.28-8.66,3.22-21.51,5.71-37.12,3.82-24,5.72-36,7.4-43.15,3-12.93,8.06-26.92,18.13-54.9,7.92-22,11.88-33,14.81-38.55,5.24-9.94,10.48-17.45,14.55-31.4,2.35-8,1.85-9.82,3.83-17.62,3.84-15.13,10.09-25.74,15.32-34.47C153.19,163,179.72,139.17,191,129.12A391.54,391.54,0,0,1,247.7,87a374.57,374.57,0,0,1,65.87-31.41,370.05,370.05,0,0,1,83.49-19.91,380.6,380.6,0,0,1,64.34-1.54A387.68,387.68,0,0,1,669.74,110c13.43,10.06,30.91,27.9,65.88,63.58,14.59,14.89,24.59,25.63,26,40.59.45,4.68.24,11.51,3.06,21.45,2.68,9.44,6.38,15.62,9.19,20.68.63,1.13,6,13.26,16.85,37.53,4.15,9.31,18.7,41.95,25.28,80.43,7.38,43.12,11.49,69.7,11.49,69.7,14.4,3.58,47.31,10.45,55.15-2.3,2-3.27,1.4-6.26-.77-22.21-4.81-35.43-3-29.81-5.36-42.13-3.2-16.71-6.78-28.35-11.49-43.66-7.36-23.94-14.16-40.92-21.44-59-12.86-31.87-18-39.75-20.69-43.65-4.83-7-6.79-8.54-19.14-24.52-11.08-14.31-18-24.13-22.22-29.87-11.52-15.8-33.14-45.44-59.74-70.47-24.48-23-46.56-35.9-65.11-46.72a447.77,447.77,0,0,0-93.45-40.59c-16.33-5-43.14-13.11-79.65-16.86C442-2.29,410.2,1.36,392.47,3.51c-46.23,5.58-79.72,17-88.09,19.91a411.55,411.55,0,0,0-75.83,36C175.25,91.61,139,129.59,123.62,149c-19.2,24.23-28.79,36.35-32.17,42.89A63.87,63.87,0,0,1,80,208a62.58,62.58,0,0,1-9.2,7.66c-16.08,11.33-27.59,43.59-33.44,60-2.56,7.17-5.88,18.48-12.51,41.1-3.73,12.7-5.88,20.5-8.32,29.33-4.62,16.76-7,25.27-8.28,32.2-.36,1.87-1.6,11.38-4.08,30.39-1,7.68-1.92,14.82-2.3,24.51-.18,4.43-.19,8.12-.16,10.69Z"/><path class="cls-4" d="M56.12,449.14c1.28-8.66,3.22-21.51,5.71-37.12,3.82-24,5.72-36,7.4-43.15,3-12.93,8.06-26.92,18.13-54.9,7.92-22,11.88-33,14.81-38.55,5.24-9.94,10.48-17.45,14.55-31.4,2.35-8,1.85-9.82,3.83-17.62,3.84-15.13,10.09-25.74,15.32-34.47C153.19,163,179.72,139.17,191,129.12A391.54,391.54,0,0,1,247.7,87a374.57,374.57,0,0,1,65.87-31.41,370.05,370.05,0,0,1,83.49-19.91,380.6,380.6,0,0,1,64.34-1.54A387.68,387.68,0,0,1,669.74,110c13.43,10.06,30.91,27.9,65.88,63.58,14.59,14.89,24.59,25.63,26,40.59.45,4.68.24,11.51,3.06,21.45,2.68,9.44,6.38,15.62,9.19,20.68.63,1.13,6,13.26,16.85,37.53,4.15,9.31,18.7,41.95,25.28,80.43,7.38,43.12,11.49,69.7,11.49,69.7,14.4,3.58,47.31,10.45,55.15-2.3,2-3.27,1.4-6.26-.77-22.21-4.81-35.43-3-29.81-5.36-42.13-3.2-16.71-6.78-28.35-11.49-43.66-7.36-23.94-14.16-40.92-21.44-59-12.86-31.87-18-39.75-20.69-43.65-4.83-7-6.79-8.54-19.14-24.52-11.08-14.31-18-24.13-22.22-29.87-11.52-15.8-33.14-45.44-59.74-70.47-24.48-23-46.56-35.9-65.11-46.72a447.77,447.77,0,0,0-93.45-40.59c-16.33-5-43.14-13.11-79.65-16.86C442-2.29,410.2,1.36,392.47,3.51c-46.23,5.58-79.72,17-88.09,19.91a411.55,411.55,0,0,0-75.83,36C175.25,91.61,139,129.59,123.62,149c-19.2,24.23-28.79,36.35-32.17,42.89A63.87,63.87,0,0,1,80,208a62.58,62.58,0,0,1-9.2,7.66c-16.08,11.33-27.59,43.59-33.44,60-2.56,7.17-5.88,18.48-12.51,41.1-3.73,12.7-5.88,20.5-8.32,29.33-4.62,16.76-7,25.27-8.28,32.2-.36,1.87-1.6,11.38-4.08,30.39-1,7.68-1.92,14.82-2.3,24.51-.18,4.43-.19,8.12-.16,10.69Z"/><rect class="cls-5" x="0.3" y="444.57" width="55.53" height="17.62" rx="2.96" transform="translate(26.21 -0.86) rotate(3.31)"/><path class="cls-6" d="M842.26,512.64a14.84,14.84,0,0,0,29.49,0V454.81H842.26Z"/><path class="cls-7" d="M781.87,517.32a28.43,28.43,0,0,0,9.19.76c5.77-.46,9.06-2.54,14.55-4.59a75.91,75.91,0,0,1,16.09-3.83c13.07-1.46,23.82,3.84,26.8,5.36a51.75,51.75,0,0,1,23,23.74C875.77,548,876,556,876.08,564c.16,11.7-1.88,21.9-8.43,42.13C859.51,631.32,853.1,646,853.1,646c-22.08,50.55-36.77,78.89-36.77,78.89-30.07,58-45.1,87-69.7,129.45,0,0-11,19.07-56.68,82.72a146,146,0,0,1-24.51,26c-8.76,7.32-15.13,12.52-25.28,15.32A51.15,51.15,0,0,1,608,976.89c-3.58-1.41-15.62-6.33-23-18.38a58.28,58.28,0,0,1-7.66-22.21c-.55-4.34-.41-7.62-2.3-12.26a30.18,30.18,0,0,0-8.43-11.49C548.44,896.13,761.13,512.65,781.87,517.32Z"/><path class="cls-8" d="M781.87,517.32a28.43,28.43,0,0,0,9.19.76c5.77-.46,9.06-2.54,14.55-4.59a75.91,75.91,0,0,1,16.09-3.83c13.07-1.46,23.82,3.84,26.8,5.36a51.75,51.75,0,0,1,23,23.74C875.77,548,876,556,876.08,564c.16,11.7-1.88,21.9-8.43,42.13C859.51,631.32,853.1,646,853.1,646c-22.08,50.55-36.77,78.89-36.77,78.89-30.07,58-45.1,87-69.7,129.45,0,0-11,19.07-56.68,82.72a146,146,0,0,1-24.51,26c-8.76,7.32-15.13,12.52-25.28,15.32A51.15,51.15,0,0,1,608,976.89c-3.58-1.41-15.62-6.33-23-18.38a58.28,58.28,0,0,1-7.66-22.21c-.55-4.34-.41-7.62-2.3-12.26a30.18,30.18,0,0,0-8.43-11.49C548.44,896.13,761.13,512.65,781.87,517.32Z"/><path class="cls-9" d="M787.7,528.44c4.33.59,6.75,25.73,1.39,49.28-1.7,7.49-3.43,14.64-16.85,40.85-7.29,14.23-14,28.78-21.45,42.89-21.28,40.08-15,30.14-40.34,78.13-22.29,42.22-33.67,63.67-44.93,80.68-7.39,11.15-15.31,24.14-27.58,40.34-23.28,30.75-49.2,57.58-50.92,56.17-.9-.73,5.61-8.48,17.62-27.57,12.68-20.16,21.38-36.93,38.79-70.47,7.7-14.83,8-16,12.91-24.84,10.42-19,18.29-30.49,38.79-68.22,17.46-32.13,21.64-42.16,38.11-72.48,12.68-23.36,11.42-19.59,17-30.55C778.43,567.77,782.17,527.69,787.7,528.44Z"/><rect class="cls-10" x="828.47" y="444.57" width="55.53" height="17.62" rx="2.96" transform="translate(1737.21 856.6) rotate(176.69)"/><path class="cls-11" d="M106.77,517.32a28.43,28.43,0,0,1-9.19.76c-5.77-.46-9.06-2.54-14.55-4.59a75.91,75.91,0,0,0-16.09-3.83C53.87,508.2,43.12,513.5,40.13,515a51.8,51.8,0,0,0-23,23.74C12.87,548,12.67,556,12.56,564c-.16,11.7,1.88,21.9,8.43,42.13C29.13,631.32,35.54,646,35.54,646c22.08,50.55,36.77,78.89,36.77,78.89,30.07,58,45.1,87,69.7,129.45,0,0,11.05,19.07,56.68,82.72a146,146,0,0,0,24.51,26c8.76,7.32,15.13,12.52,25.28,15.32a51.15,51.15,0,0,0,32.17-1.53c3.58-1.41,15.62-6.33,23-18.38a58.28,58.28,0,0,0,7.66-22.21c.55-4.34.41-7.62,2.3-12.26A30.18,30.18,0,0,1,322,912.55C340.2,896.13,127.51,512.65,106.77,517.32Z"/><path class="cls-12" d="M106.77,517.32a28.43,28.43,0,0,1-9.19.76c-5.77-.46-9.06-2.54-14.55-4.59a75.91,75.91,0,0,0-16.09-3.83C53.87,508.2,43.12,513.5,40.13,515a51.8,51.8,0,0,0-23,23.74C12.87,548,12.67,556,12.56,564c-.16,11.7,1.88,21.9,8.43,42.13C29.13,631.32,35.54,646,35.54,646c22.08,50.55,36.77,78.89,36.77,78.89,30.07,58,45.1,87,69.7,129.45,0,0,11.05,19.07,56.68,82.72a146,146,0,0,0,24.51,26c8.76,7.32,15.13,12.52,25.28,15.32a51.15,51.15,0,0,0,32.17-1.53c3.58-1.41,15.62-6.33,23-18.38a58.28,58.28,0,0,0,7.66-22.21c.55-4.34.41-7.62,2.3-12.26A30.18,30.18,0,0,1,322,912.55C340.2,896.13,127.51,512.65,106.77,517.32Z"/><path class="cls-13" d="M107.27,503.17a37.68,37.68,0,0,1,10.22-15.32,49.19,49.19,0,0,1,20.93-11.75c20.09-6.07,37.65.55,41.37,2,13.4,5.38,21.91,14.33,31.66,26.56,21.49,27,31.06,47.36,61.27,103.15,7.49,13.83,9.66,17.67,19.41,35.74,14.55,27,16.88,31.7,27.06,50.55,21.11,39.09,20,35.48,29.62,54.13,15,29.13,10.27,23.69,27.06,57.19,11.13,22.2,17,32.23,20.43,50,2.55,13.35,2.3,23.74-.51,33.7-1.46,5.15-4.17,14.32-12.26,22.47-6,6.08-12.31,8.81-17.87,11.23-6.78,3-13.57,5.91-23,5.62-2.65-.08-11.2-.57-22.47-7.15-18-10.52-26.93-27.33-29.11-31.41-31.77-59.68-64.56-118.84-95.6-178.91-8.16-15.81-15.88-30-22.86-42.45,0,0-32.53-56.36-59.75-119.49a102.72,102.72,0,0,1-6.64-26.55C105,511.5,106.22,506.3,107.27,503.17Z"/><path class="cls-14" d="M202.83,503.42c-1.45.75.65,7.47,3.57,16.85a250.94,250.94,0,0,0,16.85,40.85c7.29,14.23,13.95,28.78,21.45,42.9,21.28,40.07,15,30.13,40.34,78.12,22.29,42.22,33.67,63.68,44.93,80.69,8.86,13.36,12,16.85,27.58,40.34,20.78,31.37,27.5,43.87,29,43.14,2.63-1.29-13.74-43.25-34.47-85-19.31-38.91-23.84-41.8-51.7-93.06-24-44.21-29.29-58-55.15-103C239,554.44,207.14,501.19,202.83,503.42Z"/><path class="cls-15" d="M100.94,528.44c-4.33.59-6.75,25.73-1.39,49.28,1.7,7.49,3.42,14.64,16.85,40.85,7.29,14.23,13.95,28.78,21.45,42.89,21.28,40.08,15,30.14,40.34,78.13,22.29,42.22,33.67,63.67,44.93,80.68,7.39,11.15,15.31,24.14,27.58,40.34,23.28,30.75,49.2,57.58,50.92,56.17.9-.73-5.61-8.48-17.62-27.57-12.68-20.16-21.38-36.93-38.79-70.47-7.7-14.83-8-16-12.91-24.84-10.42-19-18.29-30.49-38.79-68.22-17.46-32.13-21.64-42.16-38.11-72.48-12.69-23.36-11.42-19.59-17-30.55C110.21,567.77,106.47,527.69,100.94,528.44Z"/><path class="cls-16" d="M53.92,560.76a3.67,3.67,0,0,1,7.23-1.16l6.21,13.29a3.87,3.87,0,0,1-1.88,4.19,4,4,0,0,1-5.2-2.45Z"/><path class="cls-17" d="M55.49,562.69a3.25,3.25,0,0,1,6.39-1l5.49,11.75a3.43,3.43,0,0,1-1.66,3.7,3.5,3.5,0,0,1-4.6-2.17Q58.31,568.82,55.49,562.69Z"/><path class="cls-16" d="M832.9,556.91a3.67,3.67,0,0,0-7.23-1.15l-6.21,13.29a3.88,3.88,0,0,0,1.88,4.19,4,4,0,0,0,5.2-2.46Z"/><path class="cls-17" d="M831.33,558.85a3.25,3.25,0,0,0-6.39-1l-5.49,11.74a3.41,3.41,0,0,0,1.66,3.7,3.5,3.5,0,0,0,4.6-2.17Q828.52,565,831.33,558.85Z"/><path class="cls-18" d="M817.68,527.07a3.41,3.41,0,0,0,1.58,1.71c3.35,1.93,16.88,8,22.73,11.36,2.18,1.27,12,6.94,15.76,11.05a8,8,0,0,0,3.64,2.23c.19.05,3.26.83,4.47-.64.89-1.08.33-2.9.13-3.57-2.6-8.42-45.93-28.48-48.09-24.59A3.38,3.38,0,0,0,817.68,527.07Z"/><path class="cls-19" d="M828.81,513.27A32.11,32.11,0,0,0,825,517.1c-3.65,4-6.05,6.71-5.51,9,.47,2,3,2.68,7.14,4.4,3.72,1.54,7.14,3.45,14,7.28,8.13,4.55,12.19,6.82,16.47,10.24,3,2.43,5.27,4.61,7.56,3.93.75-.22,1.75-.83,4.4-6.13,2.18-4.35,3.27-6.52,3.45-8,.72-5.92-5.83-11.21-10-14.55C852.5,515.12,836.14,507.75,828.81,513.27Z"/><ellipse class="cls-20" cx="851.21" cy="523.75" rx="6.61" ry="23.75" transform="translate(-16.12 1020.33) rotate(-61.4)"/><path class="cls-21" d="M833.7,516a4.92,4.92,0,0,0-4.22,1.44"/><path class="cls-22" d="M839.07,522.24a4.89,4.89,0,0,0-3.27,3"/><path class="cls-23" d="M867.88,534.24a5.07,5.07,0,0,1,.44,2.47,4.85,4.85,0,0,1-.61,2"/><path class="cls-24" d="M864.08,533.55a4.91,4.91,0,0,1-1.18,4.29"/><path class="cls-25" d="M859.7,532.1a4.91,4.91,0,0,1-1.18,4.29"/><path class="cls-26" d="M856.25,531.31a4.82,4.82,0,0,1-.94,2.32,5,5,0,0,1-1.57,1.35"/><path class="cls-27" d="M835.52,518.74a4.89,4.89,0,0,0-2.31,1,5,5,0,0,0-1.33,1.59"/><path class="cls-28" d="M775.79,508.46a37.68,37.68,0,0,0-10.22-15.32,49.08,49.08,0,0,0-20.93-11.75c-20.09-6.07-37.65.55-41.36,2-13.41,5.38-21.91,14.33-31.66,26.56-21.5,27-31.07,47.36-61.28,103.15-7.49,13.83-9.66,17.67-19.4,35.74-14.56,27-16.88,31.7-27.07,50.55-21.11,39.09-20,35.48-29.62,54.13-15,29.13-10.27,23.69-27.06,57.19-11.13,22.2-17,32.23-20.42,50-2.56,13.35-2.31,23.74.51,33.7,1.45,5.15,4.17,14.32,12.25,22.47,6,6.08,12.31,8.81,17.87,11.23,6.78,2.95,13.57,5.91,23,5.62,2.65-.08,11.21-.57,22.47-7.15,18-10.52,26.94-27.33,29.11-31.41,31.77-59.68,64.56-118.84,95.6-178.91,8.16-15.81,15.89-30,22.87-42.45,0,0,32.52-56.36,59.74-119.49a102.25,102.25,0,0,0,6.64-26.55C778.08,516.79,776.84,511.59,775.79,508.46Z"/><path class="cls-29" d="M680.24,508.71c1.44.75-.66,7.47-3.58,16.85a250,250,0,0,1-16.85,40.85c-7.29,14.23-13.95,28.78-21.45,42.9-21.28,40.07-15,30.13-40.34,78.12-22.29,42.22-33.67,63.68-44.93,80.69-8.85,13.36-12,16.85-27.58,40.34-20.78,31.37-27.5,43.87-29,43.14-2.63-1.29,13.74-43.25,34.47-85,19.32-38.91,23.85-41.8,51.7-93.06,24-44.21,29.29-57.95,55.15-103C644,559.73,675.92,506.48,680.24,508.71Z"/></svg>