<svg id="Layer_1" data-name="Layer 1" xmlns="http://www.w3.org/2000/svg" xmlns:xlink="http://www.w3.org/1999/xlink" viewBox="0 0 290.49 104.19"><defs><style>.cls-1,.cls-5{fill:none;}.cls-2{fill:#366CEB;}.cls-3{fill:#fff;}.cls-4{clip-path:url(#clip-path);}.cls-5{stroke:#fff;stroke-miterlimit:10;stroke-width:9px;}.cls-6{clip-path:url(#clip-path-2);}</style><clipPath id="clip-path"><rect class="cls-1" x="102.96" y="30.94" width="59.84" height="32.25"/></clipPath><clipPath id="clip-path-2"><rect class="cls-1" x="102.96" y="46.19" width="59.84" height="32.25"/></clipPath></defs><circle class="cls-2" cx="244.48" cy="19.31" r="6.32"/><path class="cls-3" d="M6.36,78.72V13H21.53V48.77h.81L35.92,30.89h17L35.88,51.43,54.1,78.72H36.39L24.45,60.41l-2.92,3.31v15Z"/><path class="cls-3" d="M57.61,78.72V30.89H72.4v7.78h.81a13.31,13.31,0,0,1,5.24-6.51,15.7,15.7,0,0,1,8.77-2.38q7.89,0,12,4.68t4.14,13.36v30.9H88.21V51.22q0-9-7.52-9a7.16,7.16,0,0,0-5.78,2.51,10,10,0,0,0-2.13,6.68V78.72Z"/><path class="cls-3" d="M158.39,30.89h15.38l6,32.79h.81l7.22-32.79h14.47l7.31,32.79h.81l6-32.79h15L219,78.72H202.65l-7.5-31.49-1.26-.11-7.4,31.6H170.85Z"/><g class="cls-4"><ellipse class="cls-5" cx="131.7" cy="29.06" rx="19.24" ry="19.37"/></g><g class="cls-6"><ellipse class="cls-5" cx="131.7" cy="80.32" rx="19.24" ry="19.37"/></g><path class="cls-3" d="M240.26,78.56V31.77h8.43V78.56Z"/><path class="cls-3" d="M268.24,18.21V31.77h12.2v6.39h-12.2V63.45c0,5.81,1.64,9.1,6.39,9.1a19.58,19.58,0,0,0,4.94-.58l.39,6.4a19,19,0,0,1-7.65,1.26A12.32,12.32,0,0,1,263.1,76c-2.23-2.71-3.19-6.78-3.19-12.3V38.16h-7.27V31.77h7.27V20.43Z"/></svg>