<svg id="Layer_1" data-name="Layer 1" xmlns="http://www.w3.org/2000/svg" xmlns:xlink="http://www.w3.org/1999/xlink" viewBox="0 0 1453.53 1557.59"><defs><style>.cls-1{fill:#adadac;}.cls-2{fill:#e2e2e2;}.cls-3{fill:#3d3d3d;}.cls-4{fill:#3d3d3c;}.cls-18,.cls-5{fill:#f9f9f9;}.cls-5{isolation:isolate;}.cls-6{fill:#aeafaf;}.cls-7{fill:#fdffff;}.cls-8{opacity:0.67;fill:url(#linear-gradient);}.cls-9{fill:url(#linear-gradient-2);}.cls-10{fill:#3a3a3a;}.cls-11{fill:url(#linear-gradient-3);}.cls-12{fill:url(#linear-gradient-4);}.cls-13{fill:url(#linear-gradient-5);}.cls-14{fill:url(#linear-gradient-6);}.cls-15{fill:gray;}.cls-16{fill:#b0b0b0;}.cls-17{fill:#b1b1b1;}</style><linearGradient id="linear-gradient" x1="389.34" y1="302.12" x2="1447.75" y2="302.12" gradientTransform="matrix(1, 0, 0, -1, 0, 1555.89)" gradientUnits="userSpaceOnUse"><stop offset="0" stop-color="#b2b2b2"/><stop offset="0.66" stop-color="#706f6f" stop-opacity="0.5"/></linearGradient><linearGradient id="linear-gradient-2" x1="479.04" y1="297.71" x2="1000.48" y2="297.71" gradientTransform="matrix(1, 0, 0, -1, 0, 1555.89)" gradientUnits="userSpaceOnUse"><stop offset="0" stop-color="#3c3c3b"/><stop offset="0.66" stop-color="#706f6f" stop-opacity="0"/><stop offset="1" stop-color="#b2b2b2"/></linearGradient><linearGradient id="linear-gradient-3" x1="1121.44" y1="513.15" x2="1219.1" y2="309.41" gradientTransform="matrix(1, 0, 0, -1, 0, 1555.89)" gradientUnits="userSpaceOnUse"><stop offset="0" stop-color="#3c3c3b"/><stop offset="0.88" stop-color="#f6f6f6"/></linearGradient><linearGradient id="linear-gradient-4" x1="1260.3" y1="545.63" x2="908.74" y2="194.06" gradientTransform="matrix(1, 0, 0, -1, 0, 1555.89)" gradientUnits="userSpaceOnUse"><stop offset="0.03" stop-color="#706f6f"/><stop offset="0.31" stop-color="#b2b2b2"/><stop offset="0.63" stop-color="#878787"/></linearGradient><linearGradient id="linear-gradient-5" x1="-8.81" y1="849.32" x2="1903.38" y2="729.07" gradientTransform="matrix(1, 0, 0, -1, 0, 1555.89)" gradientUnits="userSpaceOnUse"><stop offset="0" stop-color="#dce27f"/><stop offset="0.36" stop-color="#706f6f" stop-opacity="0"/><stop offset="1" stop-color="#706f6f" stop-opacity="0"/></linearGradient><linearGradient id="linear-gradient-6" x1="504.31" y1="1571.81" x2="769.33" y2="743.05" gradientUnits="userSpaceOnUse"><stop offset="0" stop-color="#4065ad"/><stop offset="0.63" stop-color="#706f6f" stop-opacity="0"/><stop offset="1" stop-color="#706f6f" stop-opacity="0"/></linearGradient></defs><path class="cls-1" d="M39.72,541.9A40.6,40.6,0,0,0,15.07,548a32.58,32.58,0,0,0-12,12.76A34.34,34.34,0,0,0,0,573.24c-1.29,32.07,299.41,950.56,299.41,950.56A65.12,65.12,0,0,0,324,1540.65c31.62,12,61.33-6.58,65.37-9.19"/><path class="cls-2" d="M735.21,1135.31,401.7,1522.38c-26,30.22-75.14,20.26-87.34-17.73L18.91,584.75c-8-25,15.35-49,40.45-41.68l488,142.77a53.38,53.38,0,0,1,34.85,33Z"/><path class="cls-3" d="M739.93,1135.31l-333.5,387.07c-26.05,30.22-75.14,20.26-87.35-17.73L23.63,584.75c-8-25,15.36-49,40.45-41.68l488,142.77a53.34,53.34,0,0,1,34.85,33Z"/><path class="cls-4" d="M701.88,1107.88l-341.24,330.9L75.71,590.86l481.52,130.2a22.31,22.31,0,0,1,15.23,14.2Z"/><path class="cls-5" d="M717.88,1113.68,351.24,1489.32,53.93,597.38a22.73,22.73,0,0,1,27.93-29L559.39,708.06a40.86,40.86,0,0,1,27.14,25.87Z"/><path class="cls-6" d="M391.55,1518.13c-.47,1.48-.57,3.17,3.06,14.17,3.3,10,4.71,12.62,5.36,13.79,2.37,4.22,4,7.1,7.28,9.19,2,1.25,5,2.48,11.87,2.29,8.51-.22,14.54-2.36,29.87-7.66l12.26-4.21c14.62-4.94,25.75-7.86,30.64-9.19,9.77-2.65,17.28-5.06,65.87-20.3,85.53-26.83,171.13-53.42,256.6-80.42,320.19-101.18,303.89-95.46,343.91-108.77,39.45-13.11,88.17-29.59,157.92-50.93,40.76-12.48,114.37-34.47,114.38-34.47h0s7-3.12,10.72-6.13c4.7-3.77,6.2-8.87,8.43-16.85,1.69-6.06,2.54-11.82,3.06-20.68.79-13.44,1.18-20.16,0-26.81-2.67-15.06-12-28.38-18.38-32.94-24.64-17.57-84.7,38.82-142.47,70.47-59.34,32.51-98.19,29-206,41.36-342.81,39.25-531.39,141.07-562.21,178.47-4.93,6-19.45,26.84-46.73,42.13-7.47,4.18-23.07,12-39.83,19.15-12.61,5.39-23.44,14.41-36,19.91C398.63,1510.79,393.11,1513.14,391.55,1518.13Z"/><path class="cls-7" d="M730.42,1135.86,1184.3,980.27a15.84,15.84,0,0,1,13.66,1.62l229,145.66c32.15,20.45,25.76,69.15-10.58,80.62l-1012,319.39c-11.21,3.54-19.89-10-12-18.71Z"/><path class="cls-8" d="M730.42,1135.86,1184.3,980.27a15.84,15.84,0,0,1,13.66,1.62l229,145.66c32.15,20.45,25.76,69.15-10.58,80.62l-1012,319.39c-11.21,3.54-19.89-10-12-18.71Z"/><path class="cls-9" d="M982.35,1309.35,489.6,1468.59c-7.38,2.39-13.71-5.87-8.87-11.59L756,1132l244.48-84.66v237.09A26.19,26.19,0,0,1,982.35,1309.35Z"/><path class="cls-10" d="M976,1303.05,501.62,1456.37c-7.11,2.3-13.2-5.65-8.54-11.16l265.05-312.92,235.38-81.52V1279A25.21,25.21,0,0,1,976,1303.05Z"/><path class="cls-11" d="M1324.5,1099.38l-305.11,104.69a3.45,3.45,0,0,1-4.39-2.13,3.29,3.29,0,0,1-.19-1l-2.67-92.46a10.76,10.76,0,0,1,7.07-10.41l201.73-73.56a12.86,12.86,0,0,1,11.66,1.46l93.23,63.63a5.53,5.53,0,0,1-1.33,9.81Z"/><path class="cls-12" d="M1321.18,1099.7l-298.54,102.43a3.37,3.37,0,0,1-4.48-3.09l-2.61-90.48a10.51,10.51,0,0,1,6.91-10.18l197.39-72a12.58,12.58,0,0,1,11.41,1.43l91.22,62.26a5.42,5.42,0,0,1-1.3,9.63Z"/><path class="cls-13" d="M1259.21,818.06l-908,671.26c-196.1-583-268.69-803.39-268.69-803.39L63,624.66l-6.83-19.73s-3.36-8-3.33-14.55a24.59,24.59,0,0,1,1-7.14,23.73,23.73,0,0,1,5.63-9.52L721.22-7.64Z"/><polygon class="cls-14" points="1349.53 1165.62 349.44 1489.32 74.57 678.77 678.8 149.95 1349.53 1165.62"/><polygon class="cls-15" points="1121.23 651.01 1072.95 633.66 996.25 549.93 1044.53 567.28 1121.23 651.01"/><polygon class="cls-16" points="924.7 554.48 876.39 537.14 936.93 497.8 985.21 515.15 924.7 554.48"/><polygon class="cls-15" points="1158.86 593.07 1110.57 575.74 865.02 211.31 913.31 228.66 1158.86 593.07"/><polygon class="cls-17" points="913.31 228.66 865.02 211.31 908.69 207.67 956.97 225.02 913.31 228.66"/><polygon class="cls-18" points="913.31 228.66 956.97 225.02 1179.96 560.55 1158.86 593.07 913.31 228.66"/><polygon class="cls-15" points="985.21 515.15 936.93 497.8 798.39 344.74 846.68 362.08 985.21 515.15"/><path class="cls-18" d="M804.19,235,1149,609.68,1121.23,651l-76.7-83.73L962.6,643.69,1024.82,787,961,875.71,730.61,239ZM924.7,554.48l60.51-39.37-138.53-153,78,192.4"/><polygon class="cls-16" points="730.61 239.03 682.33 221.68 755.9 217.62 804.19 234.96 730.61 239.03"/><polygon class="cls-15" points="960.97 875.8 912.68 858.45 682.33 221.68 730.61 239.03 960.97 875.8"/></svg>