<svg id="Layer_1" data-name="Layer 1" xmlns="http://www.w3.org/2000/svg" viewBox="0 0 751.56 710.54"><defs><style>.cls-1{fill:#fff;}</style></defs><rect class="cls-1" width="751.56" height="710.54"/><path d="M.82,714c-1.71-7.05-.52-13.63,1.56-20.12s6-12.05,10.73-17.13a79,79,0,0,1,9.21-7.16,92.85,92.85,0,0,1,17.52-8.82q50.58-23.68,101.23-47.26,24.41-11.38,48.84-22.74,24.59-11.47,49.14-23a5.55,5.55,0,0,0,2.36-2.19c8.56-15.21,13-31.48,12.13-49-.1-2,.44-3,2.37-3.65,5.65-2,11.21-4.2,16.83-6.26,4.84-1.78,7.23-5,7.43-10.16.65-16,1.33-32.05,1.91-48.08a7.75,7.75,0,0,0-1-3.91,249.75,249.75,0,0,1-21.65-50.17c-2.67-8.71-4.64-17.63-7-26.44-.18-.65-1.11-1.65-1.59-1.6a8.1,8.1,0,0,1-8.13-4.16,70,70,0,0,1-6.46-12.78,276.49,276.49,0,0,1-13.48-52.12c-1-6.76-1.85-13.57-.25-20.38.08-.34.12-.69.22-1,1.52-5.11,4.06-6.52,10.3-5.46,0-.83.06-1.61,0-2.38q-1.65-17.91-3.35-35.82-1.29-13.74-2.58-27.49c-.68-7.21-1.39-14.43-2.08-21.65-1.08-11.29,1.6-21.87,6.21-32A57.18,57.18,0,0,1,250,128.08c3.92-2.86,5.31-7.35,7.15-11.57,2.43-5.54,4.64-11.23,7.68-16.42,5.64-9.62,14.33-16,24.17-20.9a118.45,118.45,0,0,1,26.38-9.14c3.85-.88,7.71-1.7,11.63-2.56l-12.5-7.71.37-.79c8.75,3.2,17.53,6.27,27.1,5.54-8-4.06-13-10.6-16.46-18.92a4,4,0,0,1,.94.27A56.64,56.64,0,0,0,357.39,56c10.94.28,21.91.1,32.84.61,23,1.06,45.16,5.79,65.59,16.94a157.56,157.56,0,0,1,33.34,24.66c3.72,3.55,6.71,7.68,8,12.77.46,1.82.67,3.7,1,5.55a4,4,0,0,0,3,3.45c9.61,2.41,14.62,9.49,18.12,17.95a95.42,95.42,0,0,1,7.2,47c-1.51,14.77-2.73,29.57-4.12,44.36-1.1,11.66-2.26,23.31-3.38,35-.18,1.92-.27,3.85-.41,5.78.47.1.67.21.85.17,5.7-1.12,8.88.72,9.69,6.47a58.87,58.87,0,0,1,.55,14.33c-2.34,21.39-8.14,42-15.62,62.06a44,44,0,0,1-5.77,9.84,7.17,7.17,0,0,1-7.29,3.18c-1.3-.22-1.52.61-1.71,1.56A250.68,250.68,0,0,1,488.66,405a255.17,255.17,0,0,1-18.1,39.45,7.26,7.26,0,0,0-.95,3.72c.58,16.1,1.28,32.19,1.92,48.29a10.48,10.48,0,0,0,7.36,10.05c5.87,2.18,11.7,4.47,17.59,6.6a2.27,2.27,0,0,1,1.78,2.58c-.49,17.18,4,33.2,11.4,48.55a8.1,8.1,0,0,0,4.18,4.07q42.72,19.8,85.37,39.75,24.87,11.61,49.75,23.23c24.29,11.33,48.61,22.59,72.86,34,11,5.2,20.2,12.61,25.62,23.89a41.7,41.7,0,0,1,4.12,21.31c-.22,3.28-.39,3.44-3.68,3.44l-300.69,0L78.07,714H.82Zm386.4-369.72c-.18-.91-.28-1.65-.47-2.36a51.85,51.85,0,0,1,0-26.47A88.2,88.2,0,0,1,401.86,284c5.17-7,11.1-13.41,16.4-20.3,6.41-8.33,12.68-16.76,16.63-26.68,6.45-16.21,8.33-32.6,2.47-49.37-3.68-10.52-9.55-19.67-18.26-26.75-11.33-9.21-24.5-13.56-39-14.19A101.81,101.81,0,0,0,338.24,154c-7.69,3-15,6.91-22.52,10.39-1.34.62-1.68,1.43-1,2.82s1.15,2.83,1.72,4.25c2.94,7.3,5.91,14.58,8.81,21.89.52,1.31,1,1.63,2.26.75s2.7-1.72,4.07-2.55c14.37-8.67,29.69-12.72,46.37-8.76,10.37,2.47,17.85,8.6,21.28,19,2.7,8.12,1.29,16.13-1.3,24-3.18,9.66-8.53,18.08-14.94,25.9-5.22,6.36-10.59,12.61-15.44,19.24a95.07,95.07,0,0,0-17.54,42.65,87.88,87.88,0,0,0,.06,28.72c.31,1.67,1,2.16,2.59,2.16,10.81-.06,21.61,0,32.42,0C385.74,344.41,386.35,344.33,387.22,344.26Zm-13.14,75.42a26.39,26.39,0,1,0-26.56-26.34A26.38,26.38,0,0,0,374.08,419.68Z"/><path class="cls-1" d="M387.22,344.26c-.87.07-1.48.15-2.09.16-10.81,0-21.61,0-32.42,0-1.62,0-2.28-.49-2.59-2.16a87.88,87.88,0,0,1-.06-28.72,95.07,95.07,0,0,1,17.54-42.65c4.85-6.63,10.22-12.88,15.44-19.24,6.41-7.82,11.76-16.24,14.94-25.9,2.59-7.86,4-15.87,1.3-24-3.43-10.36-10.91-16.49-21.28-19-16.68-4-32,.09-46.37,8.76-1.37.83-2.78,1.61-4.07,2.55s-1.74.56-2.26-.75c-2.9-7.31-5.87-14.59-8.81-21.89-.57-1.42-1-2.9-1.72-4.25s-.39-2.2,1-2.82c7.5-3.48,14.83-7.37,22.52-10.39a101.81,101.81,0,0,1,41.89-7.35c14.47.63,27.64,5,39,14.19,8.71,7.08,14.58,16.23,18.26,26.75,5.86,16.77,4,33.16-2.47,49.37-3.95,9.92-10.22,18.35-16.63,26.68C413,270.57,407,277,401.86,284a88.2,88.2,0,0,0-15.07,31.45,51.85,51.85,0,0,0,0,26.47C386.94,342.61,387,343.35,387.22,344.26Z"/><path class="cls-1" d="M374.08,419.68a26.39,26.39,0,1,1,26.38-26.29A26.41,26.41,0,0,1,374.08,419.68Z"/></svg>