<svg id="Layer_1" data-name="Layer 1" xmlns="http://www.w3.org/2000/svg" viewBox="0 0 383.42 351.78"><defs><style>.cls-1{fill:#fff;}.cls-2{fill:#cefb82;}</style></defs><path class="cls-1" d="M0,235.09v-9.73a9.48,9.48,0,0,0,.85-1.47C4.33,214.54,11,209.9,21,209.61a37.53,37.53,0,0,0,8.11-1.1c10.39-2.63,15-10.56,16.41-20.12,2.07-14,3.22-28.19,4.61-42.31,1.69-17.17,5.11-33.92,11.77-49.91,10.4-25,27.41-44.66,48.94-60.62C149.34,7,192.36-4.88,240,1.83c35.18,5,66.51,19.19,92.51,43.49,45.43,42.45,60.94,94.13,44.68,154.49C368.44,232.15,349,257.48,323,278c-5.22,4.11-10.83,7.71-16.36,11.61C293.8,261.93,267.57,253,247.18,257A52.33,52.33,0,0,0,219,272c-11,11.28-15.94,25-15.54,40.72H172.27c.17-13.07-2.62-25.09-10.67-35.49S143,260.52,130.28,257.61a53.21,53.21,0,0,0-32.62,2.5c-15,6.12-24.32,17.62-29.78,32.77-4.28-2.14-8.25-3.94-12-6.05C33,274.11,13,258.44,0,235.09Zm208.65-7.42a80.66,80.66,0,0,0,27.86-4.6c20.75-7.65,36-21,42.7-42.67,2-6.57-.7-12.3-6.24-14-5.7-1.74-10.8,1.46-12.82,8.25a39.82,39.82,0,0,1-11.39,18.1c-8.9,8.26-19.58,12.32-31.48,14.12-25.06,3.8-55-13.85-56.38-36.77-.33-5.2-5.71-8.18-10.81-7.29-5.68,1-9.29,5.38-8.5,10.82a59.59,59.59,0,0,0,2.54,10.87C152.7,209.41,180.36,227.84,208.65,227.67ZM144,121.94a19.58,19.58,0,0,0,18.8,20.14c10.24.36,19-8.15,19.63-19a19.34,19.34,0,0,0-18.08-20C153.3,102.61,144.5,110.73,144,121.94Zm111.42-22a19.47,19.47,0,0,0-.13,38.94,19.47,19.47,0,0,0,.13-38.94Z"/><path class="cls-2" d="M159,310.16c-.21,23.51-18.2,41.83-40.88,41.62-21.81-.21-40-18.91-40-41.1,0-23.13,17.91-41.29,40.47-41.07C141.69,269.83,159.17,287.37,159,310.16Zm-28.7-.11c-.06-7.47-5-13-11.53-12.92-6.12.09-11,6-10.95,13.17S113,323.35,119,323.41,130.32,317.27,130.27,310.05Z"/><path class="cls-2" d="M297.23,310.75c-.05,22.74-18.32,41.15-40.69,41-22.15-.15-40.22-18.92-40.15-41.7a40.94,40.94,0,0,1,40.84-40.5C279.42,269.6,297.27,288,297.23,310.75Zm-51-.56c0,.37,0,.74,0,1.12.3,6.84,4.81,11.9,10.79,12.1,5.82.2,10.23-4.09,11.13-10.8,1-7.47-2.5-14-8.15-15.31a9.17,9.17,0,0,0-1.48-.15C251.14,296.62,246.23,301.83,246.24,310.19Z"/></svg>